<svg
 xmlns="http://www.w3.org/2000/svg"
 xmlns:xlink="http://www.w3.org/1999/xlink"
 width="18px" height="13px">
<path fill-rule="evenodd"  fill="rgb(252, 252, 252)"
 d="M16.695,7.661 L1.306,7.661 C0.685,7.661 0.181,7.157 0.181,6.536 C0.181,5.915 0.685,5.412 1.306,5.412 L16.695,5.412 C17.316,5.412 17.820,5.915 17.820,6.536 C17.820,7.157 17.316,7.661 16.695,7.661 ZM16.695,2.494 L1.306,2.494 C0.685,2.494 0.181,1.991 0.181,1.370 C0.181,0.749 0.685,0.245 1.306,0.245 L16.695,0.245 C17.316,0.245 17.820,0.749 17.820,1.370 C17.820,1.991 17.316,2.494 16.695,2.494 ZM1.306,10.579 L16.695,10.579 C17.316,10.579 17.820,11.082 17.820,11.703 C17.820,12.324 17.316,12.827 16.695,12.827 L1.306,12.827 C0.685,12.827 0.181,12.324 0.181,11.703 C0.181,11.082 0.685,10.579 1.306,10.579 Z"/>
</svg>