<svg
 xmlns="http://www.w3.org/2000/svg"
 xmlns:xlink="http://www.w3.org/1999/xlink"
 width="68px" height="68px">
<path fill-rule="evenodd"  fill="rgb(49, 72, 181)"
 d="M67.657,34.197 C67.653,35.088 66.929,35.807 66.039,35.807 C66.036,35.807 66.034,35.807 66.031,35.807 C65.137,35.802 64.416,35.075 64.421,34.181 L64.421,34.000 C64.421,33.106 65.146,32.382 66.039,32.382 C66.933,32.382 67.658,33.106 67.658,34.000 L67.657,34.197 ZM65.692,28.996 C64.818,29.178 63.960,28.617 63.778,27.743 C62.550,21.872 59.636,16.677 55.609,12.622 C52.959,12.952 50.901,15.217 50.901,17.955 C50.901,22.704 47.037,26.567 42.288,26.567 C39.880,26.567 37.836,28.160 37.154,30.347 C37.683,30.145 38.248,30.035 38.831,30.028 C40.129,30.005 41.353,30.502 42.281,31.408 C43.095,32.201 43.595,33.232 43.716,34.347 C45.698,33.987 47.760,34.378 49.508,35.495 C51.846,36.989 53.242,39.538 53.242,42.313 L53.242,46.489 C53.242,49.182 51.086,51.395 48.437,51.422 C48.420,51.422 48.404,51.422 48.388,51.422 C47.580,51.422 46.814,51.222 46.138,50.867 C45.606,52.515 44.753,54.056 43.614,55.392 C41.571,57.788 38.738,59.372 35.637,59.850 C34.546,60.019 33.429,60.104 32.316,60.104 C32.273,60.104 32.231,60.104 32.188,60.104 C26.610,60.071 21.284,57.819 17.190,53.762 C13.096,49.705 10.796,44.399 10.714,38.821 C10.676,36.217 11.097,33.663 11.967,31.230 C12.274,30.374 12.201,29.386 11.768,28.520 C10.943,26.871 10.527,25.018 10.564,23.160 C10.692,16.866 15.926,11.823 22.220,11.928 C25.684,11.983 29.188,13.644 31.365,16.261 C33.170,18.431 33.921,21.061 33.482,23.667 C33.255,25.008 32.935,25.805 32.652,26.509 C32.429,27.066 32.229,27.563 32.060,28.361 C32.795,28.580 33.471,28.934 34.060,29.396 C35.149,25.887 38.426,23.331 42.288,23.331 C45.252,23.331 47.664,20.920 47.664,17.955 C47.664,14.456 49.763,11.440 52.766,10.094 C47.542,5.995 40.986,3.579 34.000,3.579 C17.226,3.579 3.579,17.226 3.579,34.000 C3.579,50.774 17.226,64.421 34.000,64.421 C48.764,64.421 61.359,53.890 63.947,39.380 C64.104,38.501 64.945,37.915 65.824,38.072 C66.704,38.229 67.290,39.069 67.133,39.949 C65.763,47.628 61.711,54.645 55.723,59.710 C49.663,64.835 41.948,67.658 34.000,67.658 C15.441,67.658 0.342,52.559 0.342,34.000 C0.342,15.441 15.441,0.342 34.000,0.342 C41.776,0.342 49.361,3.057 55.358,7.986 C56.018,8.528 56.654,9.096 57.268,9.684 C57.361,9.756 57.446,9.837 57.521,9.927 C62.276,14.580 65.585,20.574 66.945,27.081 C67.128,27.955 66.567,28.813 65.692,28.996 ZM30.926,31.409 C30.207,32.269 29.244,32.699 28.353,33.097 C28.124,33.198 27.890,33.303 27.651,33.417 L32.093,34.897 L33.131,33.833 C32.992,32.631 32.092,31.657 30.926,31.409 ZM34.131,37.442 C33.439,38.151 32.384,38.406 31.446,38.093 L26.175,36.336 C25.011,35.949 24.200,34.909 24.108,33.689 C24.016,32.459 24.668,31.301 25.770,30.738 L25.802,30.721 C26.252,30.489 26.668,30.304 27.035,30.140 C28.372,29.545 28.597,29.421 28.742,28.514 C28.992,26.938 29.341,26.069 29.649,25.303 C29.903,24.671 30.122,24.125 30.291,23.128 C30.650,21.000 29.720,19.345 28.877,18.331 C27.286,16.418 24.715,15.205 22.168,15.164 C22.124,15.163 22.079,15.163 22.035,15.163 C17.572,15.163 13.891,18.753 13.800,23.226 C13.773,24.580 14.063,25.874 14.662,27.073 C15.488,28.725 15.617,30.637 15.015,32.320 C14.276,34.387 13.918,36.559 13.950,38.774 C14.093,48.524 22.454,56.810 32.207,56.868 C33.197,56.875 34.179,56.801 35.144,56.652 C40.004,55.902 43.536,51.764 43.542,46.812 L43.542,43.547 C43.542,42.653 44.267,41.929 45.160,41.929 C46.054,41.929 46.779,42.653 46.779,43.547 L46.779,46.730 C46.859,47.552 47.557,48.186 48.388,48.186 C48.393,48.186 48.399,48.186 48.404,48.186 C49.287,48.177 50.006,47.416 50.006,46.489 L50.006,42.313 C50.006,40.648 49.168,39.119 47.765,38.222 C46.362,37.326 44.623,37.208 43.112,37.908 C42.754,38.073 42.423,38.279 42.123,38.520 L41.295,39.369 C40.661,40.201 40.297,41.231 40.297,42.313 L40.297,47.161 C40.297,48.055 39.572,48.779 38.679,48.779 C37.785,48.779 37.060,48.055 37.060,47.161 L37.060,43.325 C35.630,44.209 33.957,44.694 32.249,44.694 C31.275,44.694 30.316,44.539 29.399,44.233 L22.758,42.018 C21.911,41.736 21.453,40.819 21.735,39.971 C22.018,39.124 22.934,38.665 23.782,38.948 L30.423,41.163 C31.009,41.359 31.624,41.458 32.249,41.458 C33.828,41.458 35.359,40.818 36.447,39.702 L38.871,37.219 C39.186,36.830 39.537,36.469 39.921,36.142 L40.049,36.012 C40.351,35.703 40.514,35.294 40.509,34.862 C40.503,34.430 40.330,34.026 40.021,33.724 C39.711,33.422 39.306,33.259 38.871,33.264 C38.439,33.269 38.035,33.442 37.733,33.752 L34.131,37.442 Z"/>
</svg>