<svg
 xmlns="http://www.w3.org/2000/svg"
 xmlns:xlink="http://www.w3.org/1999/xlink"
 width="67px" height="68px">
<path fill-rule="evenodd"  fill="rgb(49, 72, 181)"
 d="M66.859,36.013 C66.584,42.991 64.723,49.090 61.363,54.103 C57.883,59.289 52.973,63.079 46.736,65.388 C45.272,65.956 41.499,66.973 36.847,67.231 C36.124,67.265 35.417,67.283 34.711,67.283 C29.646,67.283 25.097,66.266 21.204,64.251 C19.171,63.234 17.327,61.597 15.432,59.099 L15.415,59.082 L15.381,59.048 C13.951,57.118 13.434,56.687 12.073,57.221 L12.056,57.221 C9.988,58.014 9.988,62.373 9.988,64.027 C9.988,64.785 9.368,65.405 8.610,65.405 C7.852,65.405 7.232,64.785 7.232,64.027 C7.232,61.666 7.232,56.101 11.073,54.654 C14.536,53.293 16.294,55.688 17.586,57.428 L17.603,57.463 C19.257,59.616 20.773,60.994 22.427,61.821 C22.427,61.839 22.444,61.839 22.444,61.839 C31.420,66.490 42.567,64.061 45.772,62.855 C57.074,58.669 63.586,49.124 64.120,35.961 C64.310,30.741 63.293,25.797 61.277,22.006 C58.848,17.475 55.144,14.839 50.251,14.202 C50.010,14.167 49.751,14.167 49.476,14.167 C48.545,14.150 47.512,14.133 46.547,13.564 C44.635,12.462 39.776,6.793 39.483,2.211 C39.431,1.453 40.000,0.798 40.758,0.746 C41.516,0.695 42.171,1.263 42.223,2.021 C42.464,5.553 46.805,10.532 47.908,11.152 C47.925,11.152 47.925,11.170 47.942,11.170 C48.287,11.376 48.873,11.376 49.510,11.393 C49.820,11.393 50.148,11.393 50.492,11.428 C50.527,11.428 50.544,11.428 50.561,11.428 C56.315,12.186 60.864,15.373 63.707,20.645 C65.946,24.866 67.066,30.310 66.859,36.013 ZM22.565,45.489 C24.150,44.851 25.804,44.679 27.217,44.593 C32.730,44.248 37.933,43.904 43.067,41.905 C46.306,40.665 50.751,38.270 53.628,33.842 C54.851,31.689 56.281,31.499 57.022,31.568 C57.039,31.568 57.056,31.568 57.074,31.568 C58.572,31.775 59.348,33.274 59.572,33.791 C61.174,37.116 61.329,41.147 59.985,44.886 C58.934,48.107 56.970,51.071 53.972,53.965 C50.010,57.721 45.341,60.322 40.482,61.494 C38.329,62.011 36.124,62.287 33.918,62.287 C30.886,62.304 27.871,61.770 25.029,60.736 C22.685,59.874 20.945,58.824 19.722,57.514 C17.913,55.533 17.207,53.052 17.758,50.692 C18.309,48.331 20.067,46.436 22.565,45.489 ZM21.738,55.636 C22.634,56.601 24.064,57.445 25.959,58.152 C30.283,59.737 35.073,59.961 39.811,58.824 C44.204,57.755 48.442,55.395 52.043,51.967 C54.713,49.400 56.436,46.798 57.349,44.007 C57.349,44.007 57.366,43.990 57.366,43.973 C58.469,40.923 58.348,37.650 57.056,34.979 C57.039,34.962 57.022,34.945 57.022,34.928 C56.936,34.721 56.815,34.531 56.660,34.359 C56.384,34.600 56.143,34.893 55.988,35.221 C55.971,35.255 55.954,35.289 55.936,35.307 C54.127,38.115 50.596,41.974 44.032,44.472 C38.518,46.626 32.850,46.988 27.389,47.332 C26.200,47.401 24.822,47.539 23.581,48.039 C23.564,48.056 23.564,48.056 23.547,48.056 C21.910,48.676 20.773,49.865 20.428,51.329 C20.084,52.794 20.566,54.361 21.738,55.636 ZM40.207,16.166 C41.826,17.458 40.482,19.887 39.500,21.662 C39.363,21.886 39.242,22.127 39.173,22.247 C38.915,22.988 38.656,23.729 38.415,24.453 C37.485,27.244 36.503,30.138 34.711,32.757 C33.643,34.273 30.852,37.994 27.716,40.200 C26.235,41.233 24.632,41.940 23.099,42.629 C21.755,43.215 20.497,43.783 19.309,44.541 C18.671,44.955 18.068,45.403 17.500,45.885 C15.984,47.091 14.295,48.469 11.952,48.693 C11.694,48.710 11.435,48.745 11.177,48.762 C9.730,48.883 8.575,48.986 7.387,49.675 C3.252,52.105 2.769,57.566 2.890,63.131 L2.890,63.148 C2.890,63.906 2.287,64.526 1.529,64.544 L1.512,64.544 C0.754,64.544 0.151,63.940 0.133,63.182 C0.064,59.203 -0.073,50.916 6.026,47.315 C7.766,46.299 9.402,46.161 10.970,46.023 C11.211,46.006 11.453,45.971 11.711,45.954 C13.244,45.799 14.485,44.800 15.794,43.732 C16.449,43.180 17.138,42.663 17.861,42.198 C19.205,41.337 20.635,40.716 21.996,40.096 C23.478,39.442 24.891,38.804 26.166,37.925 C28.078,36.582 30.438,34.049 32.471,31.172 C34.039,28.880 34.900,26.313 35.814,23.574 C36.072,22.816 36.330,22.041 36.606,21.265 C36.606,21.248 36.623,21.214 36.641,21.179 C36.744,20.955 36.899,20.680 37.089,20.335 C37.330,19.904 37.984,18.698 38.157,18.078 C32.488,13.633 31.369,4.674 31.317,4.295 C31.231,3.537 31.765,2.848 32.523,2.762 C33.281,2.676 33.970,3.210 34.056,3.968 C34.073,4.089 35.159,12.513 40.155,16.131 C40.172,16.131 40.190,16.149 40.207,16.166 Z"/>
</svg>