<svg
 xmlns="http://www.w3.org/2000/svg"
 xmlns:xlink="http://www.w3.org/1999/xlink"
 width="64px" height="80px">
<path fill-rule="evenodd"  fill="rgb(49, 72, 181)"
 d="M62.068,63.087 L60.613,63.451 L60.613,79.018 L58.012,79.018 L58.012,64.102 L51.509,65.727 L51.509,79.018 L48.908,79.018 L48.908,64.922 C48.907,62.058 49.369,59.213 50.275,56.496 L52.743,57.319 C52.126,59.168 51.737,61.084 51.584,63.027 L59.873,60.954 C56.652,54.898 51.281,50.265 44.817,47.968 L40.428,46.418 L33.840,53.006 L36.822,55.987 C37.066,56.232 37.203,56.563 37.202,56.908 L37.202,79.018 L34.601,79.018 L34.601,57.446 L23.572,46.418 L19.183,47.968 C12.719,50.265 7.348,54.898 4.127,60.954 L12.416,63.027 C12.263,61.084 11.874,59.168 11.257,57.319 L13.725,56.496 C14.631,59.213 15.093,62.058 15.092,64.922 L15.092,79.018 L12.491,79.018 L12.491,65.727 L5.988,64.102 L5.988,79.018 L3.387,79.018 L3.387,63.451 L1.932,63.087 C1.855,63.068 1.779,63.041 1.707,63.008 C1.053,62.710 0.765,61.938 1.064,61.284 C4.272,54.315 10.021,48.834 17.136,45.962 C13.882,45.322 10.763,44.122 7.919,42.416 C7.788,42.337 7.671,42.235 7.575,42.115 C7.125,41.554 7.215,40.735 7.776,40.285 C11.587,37.251 13.803,32.642 13.792,27.771 L13.792,26.115 C12.058,23.973 12.058,20.911 13.792,18.769 L13.792,16.752 C13.801,8.046 20.856,0.992 29.561,0.982 L33.141,0.982 C36.307,0.979 39.188,2.807 40.534,5.672 C41.416,5.278 42.372,5.074 43.338,5.074 C47.132,5.073 50.208,8.149 50.208,11.943 L50.208,18.769 C51.942,20.911 51.942,23.973 50.208,26.115 L50.208,27.771 C50.197,32.642 52.413,37.251 56.224,40.285 C56.343,40.381 56.445,40.497 56.524,40.629 C56.895,41.245 56.697,42.045 56.080,42.416 C53.237,44.122 50.118,45.322 46.864,45.962 C53.979,48.834 59.728,54.315 62.936,61.284 C62.969,61.357 62.996,61.432 63.015,61.509 C63.189,62.207 62.765,62.913 62.068,63.087 ZM32.000,51.167 L37.916,45.250 C37.632,45.029 37.372,44.779 37.139,44.505 L32.920,48.724 C32.412,49.231 31.588,49.231 31.080,48.724 L26.861,44.505 C26.629,44.781 26.369,45.031 26.084,45.251 L32.000,51.167 ZM28.028,41.992 L32.000,45.965 L35.972,41.992 C35.925,41.710 35.902,41.426 35.902,41.141 L35.902,38.916 C35.902,38.398 36.209,37.930 36.684,37.724 C40.947,35.859 43.703,31.648 43.705,26.994 L43.705,19.187 C40.700,19.133 37.969,17.430 36.598,14.755 C32.413,17.637 27.453,19.184 22.372,19.191 L20.295,19.191 L20.295,26.994 C20.295,31.649 23.052,35.861 27.318,37.724 C27.792,37.930 28.099,38.398 28.098,38.916 L28.098,41.141 C28.098,41.426 28.075,41.710 28.028,41.992 ZM10.826,41.053 C14.496,42.926 18.557,43.902 22.676,43.902 L22.893,43.902 L23.762,43.595 C24.801,43.226 25.495,42.244 25.497,41.141 L25.497,39.738 C21.113,37.500 18.187,33.166 17.750,28.264 C17.286,28.218 16.829,28.115 16.390,27.958 C16.354,32.890 14.352,37.604 10.826,41.053 ZM15.158,21.791 C14.799,23.551 15.934,25.269 17.693,25.628 L17.693,19.256 C16.417,19.516 15.419,20.514 15.158,21.791 ZM47.607,11.943 C47.607,11.280 47.453,10.627 47.157,10.035 C46.103,7.926 43.539,7.072 41.431,8.126 L40.386,8.649 C40.301,8.692 40.212,8.724 40.120,8.747 C39.423,8.922 38.716,8.498 38.542,7.801 C37.925,5.321 35.697,3.581 33.141,3.583 L29.561,3.583 C22.292,3.592 16.401,9.483 16.393,16.752 L16.393,16.924 C17.019,16.702 17.679,16.589 18.344,16.589 L22.372,16.589 C27.467,16.583 32.408,14.849 36.390,11.671 C36.536,11.555 36.705,11.471 36.886,11.425 C37.583,11.251 38.290,11.675 38.464,12.372 C39.081,14.852 41.309,16.592 43.865,16.589 L45.656,16.589 C46.321,16.589 46.981,16.702 47.607,16.924 L47.607,11.943 ZM46.307,19.256 L46.307,25.628 C47.819,25.317 48.906,23.986 48.908,22.442 C48.906,20.897 47.819,19.567 46.307,19.256 ZM53.174,41.053 C49.648,37.604 47.646,32.890 47.610,27.958 C47.171,28.115 46.714,28.218 46.250,28.264 C45.811,33.166 42.886,37.500 38.503,39.740 L38.503,41.141 C38.504,42.244 39.200,43.226 40.239,43.595 L41.109,43.902 L41.324,43.902 C45.443,43.902 49.504,42.926 53.174,41.053 ZM27.016,31.477 C27.414,30.879 28.222,30.716 28.820,31.114 C30.744,32.402 33.256,32.402 35.180,31.114 C35.181,31.114 35.182,31.113 35.182,31.113 C35.780,30.715 36.588,30.877 36.986,31.475 C37.383,32.073 37.221,32.881 36.623,33.279 C33.825,35.151 30.175,35.151 27.377,33.279 C26.780,32.880 26.619,32.074 27.016,31.477 ZM35.902,20.491 C35.902,19.773 36.484,19.191 37.202,19.191 L39.804,19.191 C40.522,19.191 41.104,19.773 41.104,20.491 C41.104,21.209 40.522,21.792 39.804,21.792 L37.202,21.792 C36.484,21.792 35.902,21.209 35.902,20.491 ZM38.503,23.092 C39.221,23.092 39.804,23.675 39.804,24.393 C39.804,25.111 39.221,25.693 38.503,25.693 C37.785,25.693 37.202,25.111 37.202,24.393 C37.202,23.675 37.785,23.092 38.503,23.092 ZM31.961,27.310 C31.961,27.311 31.961,27.312 31.960,27.313 C31.785,28.009 31.080,28.431 30.384,28.256 C30.384,28.256 30.384,28.256 30.384,28.256 C29.687,28.081 29.263,27.375 29.438,26.679 L30.738,21.476 C30.738,21.476 30.739,21.475 30.739,21.475 C30.913,20.778 31.619,20.355 32.316,20.530 C33.013,20.704 33.436,21.410 33.262,22.107 L31.961,27.310 ZM26.798,21.792 L24.196,21.792 C23.478,21.792 22.896,21.209 22.896,20.491 C22.896,19.773 23.478,19.191 24.196,19.191 L26.798,19.191 C27.516,19.191 28.098,19.773 28.098,20.491 C28.098,21.209 27.516,21.792 26.798,21.792 ZM25.497,23.092 C26.215,23.092 26.798,23.675 26.798,24.393 C26.798,25.111 26.215,25.693 25.497,25.693 C24.779,25.693 24.196,25.111 24.196,24.393 C24.196,23.675 24.779,23.092 25.497,23.092 Z"/>
</svg>