<svg
 xmlns="http://www.w3.org/2000/svg"
 xmlns:xlink="http://www.w3.org/1999/xlink"
 width="34px" height="23px">
<path fill-rule="evenodd"  fill="rgb(255, 255, 255)"
 d="M33.218,3.949 L14.918,22.249 C14.144,23.023 12.889,23.023 12.116,22.249 L12.112,22.246 C12.112,22.246 12.111,22.245 12.111,22.245 C12.111,22.244 12.110,22.244 12.110,22.244 L0.881,11.015 C0.107,10.241 0.107,8.986 0.881,8.212 L0.885,8.209 C1.659,7.435 2.913,7.435 3.687,8.209 L13.517,18.038 L30.412,1.143 C31.186,0.369 32.441,0.369 33.215,1.143 L33.218,1.147 C33.992,1.921 33.992,3.175 33.218,3.949 Z"/>
</svg>