<svg
 xmlns="http://www.w3.org/2000/svg"
 xmlns:xlink="http://www.w3.org/1999/xlink"
 width="77px" height="66px">
<path fill-rule="evenodd"  fill="rgb(49, 72, 181)"
 d="M59.157,8.198 C62.096,9.327 64.608,11.318 66.422,13.955 C68.274,16.646 69.253,19.814 69.253,23.116 C69.253,23.926 68.596,24.583 67.786,24.583 C66.976,24.583 66.319,23.926 66.319,23.116 C66.319,17.719 63.018,12.824 58.105,10.936 C57.349,10.645 56.971,9.797 57.262,9.041 C57.553,8.284 58.401,7.907 59.157,8.198 ZM53.683,10.118 C52.873,10.118 52.217,9.461 52.217,8.651 C52.217,7.841 52.874,7.185 53.684,7.185 C54.494,7.185 55.154,7.841 55.154,8.651 C55.154,9.461 54.502,10.118 53.692,10.118 L53.683,10.118 ZM70.161,40.733 C67.086,45.291 62.812,49.778 57.459,54.070 C48.402,61.331 39.489,65.480 39.114,65.653 C38.919,65.743 38.709,65.788 38.499,65.788 C38.290,65.788 38.080,65.743 37.885,65.653 C37.533,65.490 29.165,61.596 20.401,54.751 C19.763,54.252 19.650,53.331 20.148,52.692 C20.647,52.054 21.569,51.941 22.207,52.439 C29.362,58.028 36.416,61.667 38.500,62.693 C40.667,61.626 48.218,57.727 55.671,51.744 C63.630,45.353 73.118,35.200 73.118,23.116 C73.118,12.104 64.400,3.146 53.684,3.146 C50.093,3.146 46.586,4.160 43.541,6.078 C43.505,6.101 43.467,6.122 43.430,6.142 C43.271,6.225 39.431,8.280 39.951,11.811 C40.133,13.043 40.875,14.046 41.734,15.207 C43.448,17.521 45.538,20.347 44.475,26.180 C45.918,25.616 47.522,25.518 49.071,25.941 C51.497,26.605 53.392,28.434 54.139,30.836 L55.265,34.450 C55.990,36.781 54.721,39.277 52.435,40.014 C51.722,40.244 50.989,40.281 50.296,40.154 C50.280,41.723 49.957,43.287 49.331,44.750 C48.209,47.375 46.184,49.508 43.629,50.758 C42.695,51.215 41.713,51.601 40.711,51.907 C38.902,52.458 37.040,52.732 35.174,52.732 C32.053,52.732 28.924,51.967 26.022,50.459 C21.385,48.051 17.965,44.079 16.392,39.274 C15.657,37.030 15.333,34.706 15.431,32.366 C15.465,31.543 15.136,30.707 14.528,30.075 C13.369,28.870 12.509,27.378 12.041,25.760 C10.456,20.278 13.623,14.508 19.102,12.898 C22.115,12.013 25.595,12.505 28.185,14.184 C30.332,15.576 31.691,17.650 32.012,20.023 C32.178,21.245 32.115,22.021 32.061,22.707 C32.017,23.248 31.979,23.732 32.046,24.467 C32.950,24.454 33.847,24.665 34.669,25.097 C35.141,25.344 35.567,25.654 35.939,26.015 C36.485,25.099 37.333,24.419 38.356,24.087 C39.474,23.724 40.667,23.818 41.714,24.352 C41.734,24.362 41.753,24.374 41.773,24.385 C42.141,20.690 40.791,18.863 39.376,16.952 C38.373,15.598 37.337,14.198 37.048,12.239 C36.258,6.875 41.351,3.931 42.023,3.568 C45.525,1.372 49.556,0.212 53.683,0.212 C66.017,0.212 76.050,10.487 76.050,23.116 C76.050,29.014 74.069,34.941 70.161,40.733 ZM33.306,27.694 C32.863,27.461 32.373,27.367 31.887,27.413 C31.497,28.351 30.779,28.982 30.114,29.566 C29.944,29.716 29.769,29.870 29.593,30.033 L33.837,30.117 L34.449,28.916 C34.217,28.393 33.820,27.964 33.306,27.694 ZM41.440,39.393 L40.407,36.073 C39.407,37.224 38.090,38.094 36.612,38.555 C35.769,38.817 34.897,38.941 34.020,38.924 L27.676,38.796 C26.867,38.780 26.223,38.110 26.239,37.300 C26.256,36.490 26.922,35.848 27.735,35.863 L34.079,35.991 C34.640,36.002 35.199,35.922 35.740,35.754 C37.106,35.328 38.258,34.362 38.900,33.103 L40.328,30.301 C40.496,29.879 40.703,29.471 40.948,29.085 L41.022,28.938 C41.200,28.589 41.232,28.192 41.111,27.819 C40.990,27.447 40.731,27.143 40.382,26.966 C40.032,26.787 39.635,26.756 39.262,26.877 C38.890,26.998 38.587,27.257 38.409,27.606 L36.286,31.771 C35.878,32.571 35.040,33.077 34.137,33.057 L29.103,32.957 C27.991,32.935 27.008,32.255 26.600,31.223 C26.188,30.183 26.441,29.005 27.243,28.221 L27.261,28.204 C27.262,28.203 27.272,28.193 27.272,28.193 C27.593,27.876 27.904,27.603 28.178,27.363 C29.173,26.487 29.335,26.319 29.216,25.495 C29.008,24.064 29.076,23.218 29.136,22.472 C29.186,21.856 29.228,21.325 29.105,20.417 C28.843,18.478 27.592,17.296 26.589,16.646 C25.321,15.824 23.758,15.392 22.199,15.392 C21.429,15.392 20.661,15.497 19.929,15.713 C15.995,16.869 13.721,21.010 14.859,24.945 C15.200,26.124 15.800,27.166 16.642,28.042 C17.802,29.249 18.429,30.869 18.361,32.488 C18.279,34.476 18.554,36.452 19.179,38.361 C21.930,46.761 31.399,51.680 39.855,49.101 C40.709,48.841 41.544,48.511 42.339,48.123 C46.343,46.165 48.285,41.631 46.956,37.344 L46.076,34.518 C45.835,33.744 46.267,32.922 47.041,32.681 C47.814,32.440 48.637,32.872 48.877,33.646 L49.735,36.400 C50.028,37.094 50.811,37.456 51.534,37.222 C52.296,36.977 52.713,36.124 52.463,35.322 L51.338,31.708 C50.889,30.267 49.752,29.169 48.296,28.771 C46.841,28.374 45.304,28.741 44.184,29.753 C43.920,29.993 43.689,30.260 43.494,30.549 L43.005,31.508 C42.681,32.398 42.644,33.388 42.935,34.325 L44.242,38.521 C44.482,39.294 44.050,40.117 43.277,40.357 C42.503,40.599 41.681,40.167 41.440,39.393 ZM33.459,6.079 C30.415,4.160 26.907,3.146 23.317,3.146 C12.601,3.146 3.883,12.104 3.883,23.116 C3.883,30.332 7.210,37.609 13.770,44.742 C14.319,45.338 14.280,46.266 13.683,46.814 C13.402,47.074 13.046,47.202 12.691,47.202 C12.295,47.202 11.900,47.042 11.611,46.728 C4.537,39.036 0.950,31.092 0.950,23.116 C0.950,10.487 10.983,0.212 23.317,0.212 C27.462,0.212 31.510,1.383 35.023,3.597 C35.709,4.029 35.914,4.935 35.482,5.620 C35.050,6.306 34.144,6.511 33.459,6.079 ZM18.073,48.981 L18.115,49.018 C18.717,49.559 18.767,50.487 18.226,51.090 C17.936,51.412 17.536,51.576 17.134,51.576 C16.785,51.576 16.435,51.452 16.155,51.201 L16.113,51.163 C15.510,50.622 15.460,49.694 16.001,49.092 C16.543,48.489 17.470,48.439 18.073,48.981 Z"/>
</svg>