<svg
 xmlns="http://www.w3.org/2000/svg"
 xmlns:xlink="http://www.w3.org/1999/xlink"
 width="54px" height="80px">
<path fill-rule="evenodd"  fill="rgb(49, 72, 181)"
 d="M46.598,62.105 C42.031,71.190 36.463,75.739 33.551,77.642 C29.565,80.244 24.416,80.240 20.434,77.632 C17.511,75.720 11.926,71.149 7.358,62.020 C2.631,52.574 0.234,40.850 0.234,27.175 C0.234,12.393 12.217,0.410 26.999,0.409 L27.000,0.409 C27.040,0.409 27.079,0.409 27.119,0.409 C27.213,0.410 27.308,0.413 27.402,0.414 C27.435,0.415 27.468,0.415 27.500,0.416 C42.054,0.686 53.802,12.735 53.766,27.456 C53.733,41.052 51.322,52.709 46.598,62.105 ZM4.250,19.220 C3.360,21.778 2.907,24.467 2.910,27.175 C2.910,40.431 5.212,51.751 9.751,60.822 C14.038,69.388 19.203,73.628 21.900,75.392 C24.992,77.418 28.991,77.422 32.087,75.401 C34.153,74.018 36.037,72.381 37.694,70.528 C37.438,62.052 33.134,54.212 26.119,49.447 L17.008,43.252 C9.045,37.842 4.270,28.847 4.250,19.220 ZM33.071,36.876 C29.135,38.217 24.865,38.217 20.929,36.876 C20.166,38.386 18.861,39.552 17.277,40.143 C17.678,40.452 18.091,40.751 18.513,41.038 L27.000,46.809 L35.487,41.038 C35.909,40.750 36.321,40.452 36.724,40.143 C35.139,39.552 33.835,38.386 33.071,36.876 ZM39.045,37.882 C39.136,37.882 39.226,37.877 39.316,37.871 C40.718,36.470 41.958,34.916 43.012,33.239 C42.703,31.289 41.022,29.853 39.048,29.852 C36.830,29.851 35.032,31.648 35.031,33.866 C35.031,36.083 36.828,37.881 39.045,37.882 ZM18.970,33.867 C18.970,31.650 17.173,29.852 14.955,29.852 C12.980,29.853 11.299,31.288 10.988,33.239 C12.043,34.916 13.282,36.470 14.684,37.871 C14.774,37.877 14.864,37.882 14.955,37.882 C17.173,37.882 18.970,36.084 18.970,33.867 ZM10.003,10.104 C8.855,11.246 7.824,12.500 6.925,13.847 L6.925,19.145 C6.924,22.967 7.751,26.743 9.349,30.214 C9.750,29.601 10.248,29.057 10.824,28.604 C7.231,22.461 7.433,14.811 11.344,8.865 C10.884,9.259 10.437,9.673 10.003,10.104 ZM29.642,3.304 C31.262,3.863 32.351,5.387 32.353,7.101 L32.353,8.439 C32.351,10.655 30.555,12.451 28.338,12.454 L24.992,12.454 C23.144,12.454 21.647,10.956 21.647,9.108 C21.647,7.260 23.144,5.762 24.992,5.762 L25.661,5.762 C26.401,5.762 27.000,6.361 27.000,7.101 C27.000,7.840 26.401,8.439 25.661,8.439 L24.992,8.439 C24.623,8.439 24.323,8.738 24.323,9.108 C24.323,9.478 24.623,9.777 24.992,9.777 L28.338,9.777 C29.077,9.776 29.676,9.178 29.676,8.439 L29.676,7.101 C29.676,6.362 29.077,5.763 28.338,5.762 C27.714,5.762 27.172,5.331 27.033,4.722 C26.869,4.002 27.319,3.285 28.040,3.120 C27.836,3.107 27.632,3.097 27.426,3.091 C27.403,3.091 27.380,3.091 27.357,3.090 C27.238,3.088 27.119,3.086 27.000,3.086 L27.000,3.086 C18.135,3.096 10.950,10.280 10.940,19.145 C10.936,22.055 11.726,24.911 13.227,27.403 C13.793,27.252 14.376,27.175 14.961,27.175 C18.655,27.177 21.649,30.173 21.647,33.867 C21.647,34.008 21.641,34.147 21.632,34.286 C25.106,35.512 28.894,35.512 32.368,34.286 C32.359,34.147 32.353,34.008 32.353,33.867 C32.353,33.281 32.430,32.698 32.581,32.133 C33.538,28.564 37.205,26.447 40.773,27.403 C41.809,25.677 42.510,23.771 42.841,21.785 C44.300,13.037 38.390,4.763 29.642,3.304 ZM47.075,13.976 C45.867,12.143 44.419,10.481 42.768,9.034 C46.574,14.962 46.732,22.523 43.176,28.604 C43.752,29.057 44.251,29.601 44.652,30.214 C46.249,26.743 47.076,22.967 47.075,19.145 L47.075,13.976 ZM36.992,43.252 L29.311,48.475 C35.269,53.181 39.153,60.028 40.135,67.556 C41.682,65.460 43.044,63.234 44.206,60.903 C48.742,51.881 51.058,40.626 51.089,27.449 C51.098,24.708 50.645,21.986 49.748,19.396 C49.671,28.960 44.903,37.877 36.992,43.252 ZM38.098,17.415 C38.098,17.415 38.098,17.415 38.098,17.415 C37.143,16.460 35.593,16.460 34.638,17.415 C34.637,17.415 34.637,17.416 34.637,17.416 C34.114,17.939 33.266,17.938 32.744,17.415 C32.222,16.892 32.222,16.045 32.745,15.522 C34.746,13.522 37.990,13.522 39.991,15.523 C40.514,16.045 40.514,16.893 39.991,17.415 C39.468,17.938 38.621,17.938 38.098,17.415 ZM31.438,25.768 C28.556,26.722 25.444,26.722 22.562,25.768 C21.861,25.535 21.482,24.777 21.715,24.076 C21.949,23.374 22.707,22.995 23.408,23.229 C25.740,24.001 28.259,24.001 30.592,23.229 C31.293,22.995 32.051,23.374 32.284,24.075 C32.518,24.777 32.139,25.535 31.438,25.768 ZM27.392,20.092 C27.175,19.875 26.824,19.875 26.608,20.092 C26.357,20.343 26.017,20.484 25.662,20.484 C25.307,20.484 24.967,20.343 24.716,20.092 C24.193,19.569 24.193,18.722 24.715,18.199 C24.715,18.199 24.716,18.199 24.716,18.199 C25.977,16.937 28.023,16.937 29.284,18.199 C29.807,18.722 29.807,19.569 29.284,20.092 C28.762,20.614 27.914,20.614 27.392,20.092 ZM19.362,17.415 C18.904,16.955 18.281,16.697 17.632,16.698 C16.982,16.697 16.359,16.955 15.901,17.415 C15.901,17.415 15.901,17.416 15.900,17.416 C15.377,17.939 14.530,17.938 14.008,17.415 C13.485,16.892 13.486,16.045 14.009,15.522 C16.010,13.522 19.254,13.522 21.255,15.523 C21.777,16.045 21.777,16.893 21.255,17.415 C20.732,17.938 19.884,17.938 19.362,17.415 Z"/>
</svg>