<svg
 xmlns="http://www.w3.org/2000/svg"
 xmlns:xlink="http://www.w3.org/1999/xlink"
 width="70px" height="76px">
<path fill-rule="evenodd"  fill="rgb(49, 72, 181)"
 d="M66.670,76.006 C66.670,73.598 66.343,71.203 65.699,68.883 L64.269,63.737 C62.773,58.359 59.624,53.587 55.269,50.096 L55.269,64.765 C57.053,65.226 58.447,66.619 58.908,68.404 C59.608,71.114 57.978,73.878 55.269,74.577 C52.559,75.277 49.795,73.647 49.095,70.938 C48.396,68.228 50.025,65.464 52.735,64.765 L52.735,49.403 C52.734,49.017 52.708,48.631 52.657,48.248 C51.964,47.817 51.250,47.418 50.516,47.051 L51.444,51.688 C51.576,52.351 51.165,53.002 50.509,53.166 L46.849,54.080 L48.844,59.067 C49.051,59.585 48.895,60.178 48.459,60.527 L36.267,70.281 L36.267,76.006 L33.733,76.006 L33.733,70.281 L21.541,60.527 C21.105,60.178 20.949,59.585 21.156,59.067 L23.151,54.080 L19.491,53.166 C18.835,53.002 18.424,52.351 18.556,51.688 L19.484,47.051 C18.749,47.419 18.035,47.818 17.343,48.248 C17.292,48.631 17.266,49.017 17.265,49.403 L17.265,59.629 C21.625,60.264 24.860,63.999 24.866,68.405 L24.866,70.938 C24.866,71.337 24.803,71.732 24.680,72.111 C24.033,74.107 21.890,75.201 19.893,74.553 C17.897,73.906 16.804,71.763 17.451,69.766 C18.099,67.770 20.242,66.677 22.238,67.324 C21.782,64.686 19.716,62.620 17.078,62.164 C13.631,61.568 10.355,63.878 9.759,67.324 C10.139,67.201 10.536,67.138 10.935,67.138 C13.035,67.139 14.737,68.843 14.736,70.943 C14.734,73.043 13.031,74.744 10.931,74.743 C8.831,74.742 7.130,73.038 7.131,70.938 L7.131,68.405 C7.137,63.999 10.372,60.264 14.731,59.629 L14.731,50.096 C10.376,53.587 7.227,58.359 5.731,63.737 L4.301,68.883 C3.657,71.203 3.330,73.598 3.330,76.006 L0.797,76.006 C0.797,73.369 1.154,70.745 1.860,68.205 L3.290,63.059 C5.147,56.387 9.317,50.593 15.055,46.715 C16.301,41.606 20.874,38.009 26.133,38.002 L28.666,38.002 L28.666,37.747 C24.397,35.568 21.548,31.347 21.122,26.572 C19.132,26.370 17.393,25.139 16.541,23.329 C15.200,20.480 16.423,17.085 19.271,15.744 C18.992,15.517 18.727,15.274 18.477,15.015 C16.797,13.282 15.903,10.934 16.005,8.522 C16.199,3.901 19.901,0.200 24.522,0.005 C26.934,-0.096 29.281,0.798 31.015,2.477 C31.034,2.496 31.053,2.514 31.072,2.532 L34.794,2.532 C37.208,2.530 39.442,3.804 40.669,5.882 L41.169,5.632 C41.914,5.260 42.735,5.066 43.568,5.066 C46.532,5.066 48.935,7.468 48.935,10.432 L48.935,15.236 C51.603,15.534 53.701,17.654 53.972,20.325 C54.291,23.457 52.010,26.254 48.878,26.572 C48.452,31.347 45.603,35.568 41.334,37.748 L41.334,38.002 L43.867,38.002 C49.126,38.009 53.699,41.606 54.945,46.714 C60.683,50.593 64.853,56.387 66.710,63.059 L68.140,68.205 C68.846,70.745 69.203,73.369 69.203,76.006 L66.670,76.006 ZM21.065,69.672 C20.366,69.672 19.799,70.239 19.799,70.938 C19.799,71.638 20.366,72.205 21.065,72.205 C21.765,72.204 22.331,71.638 22.332,70.938 C22.332,70.239 21.765,69.672 21.065,69.672 ZM10.931,72.205 C11.631,72.205 12.198,71.638 12.198,70.938 C12.198,70.239 11.631,69.672 10.931,69.672 C10.232,69.673 9.665,70.239 9.664,70.938 C9.664,71.638 10.232,72.205 10.931,72.205 ZM48.935,24.004 C50.408,23.701 51.466,22.405 51.468,20.901 C51.466,19.396 50.408,18.100 48.935,17.797 L48.935,24.004 ZM46.143,59.135 L43.958,53.674 C43.937,53.621 43.919,53.566 43.905,53.511 C43.736,52.832 44.148,52.144 44.827,51.974 L48.722,51.001 L47.692,45.851 L47.711,45.847 C47.635,45.820 47.560,45.790 47.484,45.763 L46.953,45.576 L44.221,48.307 L37.762,65.840 L46.143,59.135 ZM38.717,55.918 L40.186,51.931 C40.147,51.935 40.107,51.937 40.067,51.937 C39.731,51.937 39.409,51.804 39.171,51.566 L38.997,51.391 L37.690,53.352 L38.717,55.918 ZM35.000,66.007 L37.409,59.469 L35.409,54.470 L34.591,54.470 L32.591,59.469 L35.000,66.007 ZM37.170,49.565 L35.000,47.394 L32.830,49.565 L34.411,51.937 L35.589,51.937 L37.170,49.565 ZM25.173,51.974 C25.528,52.063 25.827,52.301 25.994,52.627 C26.160,52.952 26.178,53.334 26.042,53.674 L23.857,59.135 L32.238,65.840 L25.779,48.307 L23.047,45.576 L22.516,45.763 C22.440,45.790 22.365,45.820 22.289,45.847 L22.308,45.851 L21.278,51.001 L25.173,51.974 ZM32.310,53.352 L31.003,51.391 L30.829,51.566 C30.591,51.804 30.269,51.937 29.933,51.937 C29.893,51.937 29.853,51.935 29.814,51.931 L31.283,55.918 L32.310,53.352 ZM26.133,40.536 C23.107,40.537 20.291,42.082 18.663,44.633 C19.642,44.158 20.647,43.737 21.673,43.374 L26.976,41.503 C27.485,41.322 27.923,40.983 28.226,40.536 L26.133,40.536 ZM27.820,43.891 L25.696,44.641 L29.933,48.878 L33.209,45.603 L29.994,42.388 C29.415,43.073 28.665,43.592 27.820,43.891 ZM18.532,20.901 C18.534,22.405 19.592,23.701 21.065,24.004 L21.065,17.797 C19.592,18.100 18.534,19.396 18.532,20.901 ZM46.401,10.432 C46.401,9.992 46.299,9.559 46.102,9.165 C45.402,7.766 43.701,7.199 42.302,7.898 L40.634,8.732 C40.580,8.759 40.524,8.782 40.468,8.801 C39.804,9.022 39.087,8.664 38.865,8.000 C38.283,6.247 36.642,5.064 34.794,5.066 L32.885,5.066 C33.447,6.254 33.737,7.552 33.733,8.866 L31.200,8.866 C31.200,5.368 28.365,2.533 24.867,2.532 C24.784,2.532 24.701,2.534 24.618,2.537 C21.318,2.676 18.675,5.319 18.537,8.618 C18.533,8.701 18.532,8.783 18.532,8.866 C18.532,12.364 21.368,15.200 24.866,15.200 L29.398,15.200 C31.149,15.202 32.861,14.683 34.317,13.711 L39.364,10.346 C39.924,9.973 40.677,10.102 41.081,10.639 L42.601,12.666 C43.533,13.903 44.884,14.758 46.401,15.070 L46.401,10.432 ZM46.401,25.334 L46.401,17.638 C44.080,17.299 41.987,16.059 40.574,14.186 L39.773,13.118 L35.722,15.819 C33.850,17.069 31.649,17.736 29.398,17.734 L29.933,17.734 C30.632,17.734 31.200,18.301 31.200,19.000 C31.200,19.700 30.632,20.267 29.933,20.267 L27.399,20.267 C26.700,20.267 26.133,19.700 26.133,19.000 C26.133,18.301 26.700,17.734 27.399,17.734 L24.866,17.734 C24.442,17.733 24.019,17.703 23.599,17.643 L23.599,25.334 C23.599,29.868 26.285,33.971 30.440,35.785 C30.901,35.987 31.200,36.442 31.200,36.946 L31.200,39.114 C31.200,39.155 31.196,39.195 31.195,39.236 C31.195,39.247 31.196,39.258 31.196,39.269 C31.196,39.317 31.193,39.364 31.188,39.412 C31.178,39.589 31.159,39.766 31.130,39.941 L35.000,43.811 L38.870,39.941 C38.843,39.775 38.824,39.608 38.813,39.440 C38.805,39.383 38.801,39.326 38.800,39.269 C38.800,39.246 38.803,39.223 38.804,39.201 C38.803,39.172 38.800,39.143 38.800,39.114 L38.800,36.946 C38.800,36.442 39.099,35.986 39.561,35.785 C43.715,33.970 46.401,29.867 46.401,25.334 ZM40.006,42.388 L36.791,45.603 L40.067,48.878 L44.304,44.641 L42.181,43.892 C41.335,43.592 40.585,43.073 40.006,42.388 ZM43.867,40.536 L41.774,40.536 C42.077,40.983 42.515,41.322 43.025,41.503 L48.327,43.374 C49.353,43.737 50.358,44.158 51.337,44.633 C49.709,42.082 46.893,40.537 43.867,40.536 ZM54.002,70.938 C53.302,70.938 52.735,70.371 52.735,69.672 L52.735,67.481 C51.950,67.934 51.467,68.772 51.468,69.678 C51.470,71.078 52.606,72.210 54.005,72.209 C55.404,72.207 56.537,71.071 56.535,69.672 C56.534,68.768 56.051,67.933 55.269,67.481 L55.269,69.672 C55.269,70.371 54.701,70.938 54.002,70.938 ZM35.000,32.823 C33.397,32.823 31.830,32.347 30.497,31.455 C29.916,31.067 29.759,30.282 30.146,29.700 C30.534,29.118 31.320,28.960 31.902,29.347 C33.777,30.602 36.223,30.602 38.098,29.347 C38.098,29.347 38.099,29.346 38.100,29.346 C38.682,28.959 39.468,29.117 39.856,29.699 C40.243,30.281 40.085,31.068 39.503,31.455 C38.170,32.347 36.603,32.823 35.000,32.823 ZM38.800,19.000 C38.800,18.301 39.368,17.734 40.067,17.734 L42.601,17.734 C43.300,17.734 43.867,18.301 43.867,19.000 C43.867,19.700 43.300,20.267 42.601,20.267 L40.067,20.267 C39.368,20.267 38.800,19.700 38.800,19.000 ZM41.334,21.534 C42.034,21.534 42.601,22.101 42.601,22.801 C42.601,23.500 42.034,24.067 41.334,24.067 C40.634,24.067 40.067,23.500 40.067,22.801 C40.067,22.101 40.634,21.534 41.334,21.534 ZM34.962,25.642 C34.962,25.642 34.962,25.643 34.962,25.644 C34.791,26.322 34.104,26.734 33.426,26.563 C32.747,26.394 32.335,25.706 32.504,25.027 L33.771,19.960 C33.941,19.281 34.629,18.869 35.307,19.038 C35.986,19.208 36.399,19.896 36.229,20.574 L34.962,25.642 ZM28.666,24.067 C27.966,24.067 27.399,23.500 27.399,22.801 C27.399,22.101 27.966,21.534 28.666,21.534 C29.366,21.534 29.933,22.101 29.933,22.801 C29.933,23.500 29.366,24.067 28.666,24.067 Z"/>
</svg>