<svg
 xmlns="http://www.w3.org/2000/svg"
 xmlns:xlink="http://www.w3.org/1999/xlink"
 width="16px" height="22px">
<path fill-rule="evenodd"  fill="rgb(255, 255, 255)"
 d="M13.986,22.000 L2.004,22.000 C0.894,22.000 -0.010,21.091 -0.010,19.975 L-0.010,6.012 L4.001,6.012 C5.112,6.012 6.015,5.103 6.015,3.986 L6.015,-0.001 L13.986,-0.001 C15.104,-0.001 15.999,0.911 15.999,2.025 L15.999,19.975 C15.999,21.100 15.093,22.000 13.986,22.000 ZM11.194,11.172 C10.944,10.920 10.538,10.920 10.287,11.172 L8.636,12.833 L8.636,8.176 C8.636,7.820 8.349,7.531 7.995,7.531 C7.641,7.531 7.354,7.820 7.354,8.176 L7.354,12.833 L5.702,11.172 C5.452,10.920 5.046,10.920 4.796,11.172 C4.545,11.423 4.545,11.832 4.796,12.083 L7.542,14.845 C7.792,15.096 8.198,15.097 8.448,14.845 L11.194,12.083 C11.444,11.832 11.444,11.423 11.194,11.172 ZM10.741,16.506 L5.249,16.506 C4.895,16.506 4.608,16.795 4.608,17.151 C4.608,17.507 4.895,17.795 5.249,17.795 L10.741,17.795 C11.095,17.795 11.382,17.507 11.382,17.151 C11.382,16.795 11.095,16.506 10.741,16.506 ZM4.064,4.832 L-0.010,4.832 L-0.010,4.786 C-0.010,4.615 0.058,4.451 0.178,4.330 L4.297,0.188 C4.417,0.067 4.580,-0.001 4.750,-0.001 L4.796,-0.001 L4.796,4.096 C4.796,4.502 4.467,4.832 4.064,4.832 Z"/>
</svg>