<svg
 xmlns="http://www.w3.org/2000/svg"
 xmlns:xlink="http://www.w3.org/1999/xlink"
 width="18px" height="18px">
<path fill-rule="evenodd"  fill="rgb(255, 255, 255)"
 d="M17.885,16.627 L17.195,17.316 L12.710,12.831 C11.418,13.973 9.737,14.687 7.875,14.687 C3.836,14.687 0.562,11.428 0.562,7.406 C0.562,3.385 3.836,0.125 7.875,0.125 C11.914,0.125 15.187,3.385 15.187,7.406 C15.187,9.221 14.496,10.860 13.393,12.135 L17.885,16.627 ZM7.875,1.094 C4.389,1.094 1.562,3.920 1.562,7.406 C1.562,10.893 4.389,13.719 7.875,13.719 C11.361,13.719 14.188,10.893 14.188,7.406 C14.188,3.920 11.361,1.094 7.875,1.094 Z"/>
</svg>