<svg
 xmlns="http://www.w3.org/2000/svg"
 xmlns:xlink="http://www.w3.org/1999/xlink"
 width="25px" height="25px">
<path fill-rule="evenodd"  fill="rgb(24, 52, 156)"
 d="M24.928,23.337 L23.958,24.307 L17.659,18.008 C15.844,19.612 13.462,20.594 10.844,20.594 C5.166,20.594 0.563,16.012 0.563,10.359 C0.563,4.707 5.166,0.125 10.844,0.125 C16.522,0.125 21.125,4.707 21.125,10.359 C21.125,12.913 20.180,15.242 18.626,17.035 L24.928,23.337 ZM10.844,1.500 C5.942,1.500 1.969,5.474 1.969,10.375 C1.969,15.277 5.942,19.250 10.844,19.250 C15.745,19.250 19.719,15.277 19.719,10.375 C19.719,5.474 15.745,1.500 10.844,1.500 Z"/>
</svg>