<svg
 xmlns="http://www.w3.org/2000/svg"
 xmlns:xlink="http://www.w3.org/1999/xlink"
 width="37px" height="20px">
<path fill-rule="evenodd"  fill="rgb(37, 66, 161)"
 d="M32.389,4.738 C31.144,4.738 30.131,3.711 30.131,2.448 C30.131,1.186 31.144,0.159 32.389,0.159 C33.634,0.159 34.647,1.186 34.647,2.448 C34.647,3.711 33.634,4.738 32.389,4.738 ZM32.389,1.685 C31.974,1.685 31.636,2.027 31.636,2.448 C31.636,2.869 31.974,3.211 32.389,3.211 C32.804,3.211 33.141,2.869 33.141,2.448 C33.141,2.027 32.804,1.685 32.389,1.685 ZM26.516,12.460 C24.698,12.460 23.288,11.617 23.288,9.351 L23.288,5.859 C23.288,3.593 24.698,2.750 26.516,2.750 C28.334,2.750 29.757,3.593 29.757,5.859 L29.757,9.351 C29.757,11.617 28.334,12.460 26.516,12.460 ZM27.702,5.859 C27.702,4.950 27.254,4.542 26.516,4.542 C25.778,4.542 25.343,4.950 25.343,5.859 L25.343,9.351 C25.343,10.260 25.778,10.668 26.516,10.668 C27.254,10.668 27.702,10.260 27.702,9.351 L27.702,5.859 ZM34.171,9.899 C34.171,8.528 33.958,8.406 32.941,7.706 C32.468,7.381 32.348,6.733 32.674,6.260 C32.999,5.787 33.647,5.667 34.120,5.993 C36.168,7.402 36.251,8.098 36.251,9.899 C36.251,11.943 34.885,13.819 32.300,15.325 C29.974,16.680 26.837,17.639 23.229,18.099 C23.184,18.104 23.140,18.107 23.096,18.107 C22.580,18.107 22.132,17.724 22.066,17.198 C21.993,16.628 22.396,16.108 22.966,16.035 C26.252,15.617 29.196,14.726 31.253,13.527 C33.135,12.431 34.171,11.142 34.171,9.899 ZM18.466,12.460 C16.648,12.460 15.225,11.617 15.225,9.351 L15.225,5.859 C15.225,3.593 16.688,2.750 18.585,2.750 C20.812,2.750 21.694,4.134 21.694,5.227 C21.694,5.859 21.391,6.057 20.732,6.057 C20.166,6.057 19.665,5.912 19.665,5.306 C19.665,4.806 19.138,4.542 18.519,4.542 C17.742,4.542 17.281,4.950 17.281,5.859 L17.281,7.045 C17.702,6.584 18.295,6.465 18.928,6.465 C20.429,6.465 21.694,7.124 21.694,9.232 L21.694,9.351 C21.694,11.617 20.284,12.460 18.466,12.460 ZM19.639,9.377 C19.639,8.415 19.204,8.046 18.453,8.046 C17.742,8.046 17.281,8.389 17.281,9.258 L17.281,9.496 C17.281,10.405 17.729,10.800 18.466,10.800 C19.204,10.800 19.639,10.405 19.639,9.496 L19.639,9.377 ZM16.199,14.844 L17.973,16.617 C18.379,17.023 18.379,17.682 17.973,18.088 L16.012,19.674 C15.808,19.877 15.542,19.979 15.276,19.979 C15.010,19.979 14.744,19.877 14.541,19.674 C14.135,19.268 14.135,18.609 14.541,18.203 L14.685,18.184 C11.126,17.869 8.047,17.118 5.521,15.904 C2.267,14.339 0.475,12.206 0.475,9.899 C0.475,8.492 1.145,6.418 4.336,4.527 C4.830,4.234 5.469,4.397 5.762,4.891 C6.054,5.385 5.891,6.023 5.397,6.316 C3.565,7.402 2.556,8.675 2.556,9.899 C2.556,11.342 3.965,12.847 6.423,14.029 C8.608,15.080 11.431,15.804 14.539,16.125 L14.728,16.314 C14.322,15.908 14.322,15.250 14.728,14.844 C15.134,14.437 15.793,14.437 16.199,14.844 ZM10.364,12.460 C8.098,12.460 7.229,11.077 7.229,9.970 C7.229,9.377 7.479,9.219 8.203,9.219 C9.047,9.219 9.257,9.403 9.257,9.904 C9.257,10.523 9.837,10.668 10.430,10.668 C11.326,10.668 11.642,10.339 11.642,9.482 L11.642,9.232 C11.642,8.349 11.102,8.178 10.377,8.178 C9.929,8.178 9.784,7.783 9.784,7.388 C9.784,6.992 9.929,6.597 10.377,6.597 C10.878,6.597 11.405,6.531 11.405,5.464 C11.405,4.700 10.970,4.516 10.430,4.516 C9.784,4.516 9.455,4.674 9.455,5.188 C9.455,5.635 9.257,5.939 8.493,5.939 C7.545,5.939 7.426,5.741 7.426,5.108 C7.426,4.081 8.164,2.750 10.430,2.750 C12.103,2.750 13.368,3.356 13.368,5.135 C13.368,6.096 13.012,6.992 12.353,7.295 C13.131,7.585 13.697,8.165 13.697,9.232 L13.697,9.482 C13.697,11.643 12.209,12.460 10.364,12.460 Z"/>
</svg>