<svg
 xmlns="http://www.w3.org/2000/svg"
 xmlns:xlink="http://www.w3.org/1999/xlink"
 width="206px" height="48px">
<path fill-rule="evenodd"  fill="rgb(255, 255, 255)"
 d="M196.449,24.050 L192.318,24.050 L192.318,33.827 L187.592,37.039 L187.592,24.050 L183.461,24.050 C177.461,24.050 174.607,21.196 174.607,15.195 L174.607,9.552 L179.331,6.341 L179.331,15.195 C179.331,17.850 180.805,19.329 183.461,19.329 L196.449,19.329 C199.105,19.329 200.579,17.850 200.579,15.195 L200.579,9.551 L205.302,6.341 L205.302,15.195 C205.302,21.196 202.450,24.050 196.449,24.050 ZM174.475,45.582 C174.475,46.472 173.817,47.123 172.713,47.123 L171.164,47.123 L171.164,41.473 L172.606,41.473 C173.668,41.473 174.319,42.140 174.319,42.947 C174.319,43.474 174.088,43.968 173.536,44.224 L173.536,44.248 C174.072,44.430 174.475,44.891 174.475,45.582 ZM173.742,43.013 C173.742,42.469 173.322,42.000 172.598,42.000 L171.717,42.000 L171.717,44.001 L172.664,44.001 C173.479,44.001 173.742,43.425 173.742,43.013 ZM172.779,44.529 L171.717,44.529 L171.717,46.596 L172.795,46.596 C173.413,46.596 173.882,46.200 173.882,45.599 C173.882,44.989 173.437,44.529 172.779,44.529 ZM166.202,41.959 L166.754,41.407 L166.754,46.637 L166.202,47.188 L166.202,41.959 ZM165.134,32.313 L161.921,37.039 L134.436,37.039 L134.436,6.341 L165.134,6.341 L161.921,11.066 L139.160,11.066 L139.160,19.329 L158.640,19.329 L155.431,24.050 L139.160,24.050 L139.160,32.313 L165.134,32.313 ZM136.572,43.408 C136.572,44.446 135.731,45.294 134.406,45.294 C134.265,45.294 134.126,45.286 133.986,45.270 L133.986,46.637 L133.434,47.188 L133.434,41.473 L134.397,41.473 C135.979,41.473 136.572,42.536 136.572,43.408 ZM134.504,41.975 L133.986,41.975 L133.986,44.742 C134.150,44.767 134.307,44.767 134.471,44.767 C135.517,44.767 135.979,44.076 135.979,43.400 C135.979,42.675 135.460,41.975 134.504,41.975 ZM129.427,45.690 C129.427,46.505 128.793,47.254 127.648,47.254 C127.228,47.254 126.454,47.147 125.927,46.274 L126.355,45.912 C126.594,46.381 127.055,46.727 127.648,46.727 C128.332,46.727 128.834,46.299 128.834,45.698 C128.834,44.833 128.019,44.693 127.220,44.388 C126.685,44.183 126.050,43.804 126.050,42.898 C126.050,42.000 126.775,41.341 127.764,41.341 C128.447,41.341 128.950,41.679 129.271,42.049 L128.867,42.478 C128.636,42.140 128.258,41.868 127.755,41.868 C127.080,41.868 126.644,42.313 126.644,42.914 C126.644,43.589 127.269,43.828 127.788,44.001 C128.480,44.232 129.427,44.569 129.427,45.690 ZM116.105,27.299 L98.987,27.299 L98.987,33.827 L94.263,37.039 L94.263,6.341 L116.105,6.341 C122.104,6.341 124.960,9.196 124.960,15.195 L124.960,18.444 C124.960,24.443 122.103,27.299 116.105,27.299 ZM120.235,15.195 C120.235,12.539 118.760,11.066 116.105,11.066 L98.987,11.066 L98.987,22.574 L116.105,22.574 C118.761,22.574 120.235,21.100 120.235,18.444 L120.235,15.195 ZM97.194,41.959 L97.745,41.407 L97.745,46.637 L97.194,47.188 L97.194,44.553 L93.825,44.553 L93.825,46.637 L93.274,47.188 L93.274,41.959 L93.825,41.407 L93.825,44.026 L97.194,44.026 L97.194,41.959 ZM87.974,42.000 L87.974,46.637 L87.422,47.188 L87.422,42.000 L85.874,42.000 L86.401,41.473 L89.440,41.473 L88.913,42.000 L87.974,42.000 ZM62.947,19.329 L75.933,19.329 C81.935,19.329 84.788,22.181 84.788,28.183 C84.788,34.185 81.935,37.039 75.933,37.039 L55.713,37.039 L55.713,37.017 L58.904,32.313 L75.933,32.313 C78.587,32.313 80.065,30.838 80.065,28.183 C80.065,25.529 78.587,24.050 75.933,24.050 L62.947,24.050 C56.946,24.050 54.093,21.197 54.093,15.195 C54.093,9.195 56.947,6.341 62.947,6.341 L83.166,6.341 L83.166,6.409 L80.021,11.066 L62.947,11.066 C60.292,11.066 58.817,12.539 58.817,15.195 C58.817,17.852 60.289,19.329 62.947,19.329 ZM39.916,40.613 C39.326,41.568 38.860,42.166 38.673,42.412 C39.154,41.585 41.554,38.124 42.574,32.666 C43.604,27.489 42.568,19.815 39.533,14.813 C39.251,14.347 38.966,13.910 38.673,13.514 C36.467,10.508 33.757,9.217 31.752,9.284 C30.845,9.375 30.082,9.755 29.593,10.407 C27.423,12.698 29.743,16.951 29.764,17.414 C30.431,19.530 29.947,22.430 28.030,23.837 C27.713,24.075 27.355,24.224 26.974,24.292 C25.874,24.680 24.516,24.303 23.295,23.240 C22.233,22.307 21.302,20.877 20.752,19.024 C20.648,18.468 19.985,16.295 19.816,12.893 C19.662,9.958 20.594,6.009 23.836,4.810 C24.606,4.389 25.554,4.167 26.600,4.146 C30.057,4.075 34.810,6.275 38.086,10.357 C38.760,11.202 39.406,12.145 39.992,13.189 C43.528,19.328 44.204,27.758 42.982,32.947 C42.175,36.512 40.884,39.043 39.916,40.613 ZM29.936,2.395 C29.123,2.077 28.244,1.807 27.340,1.646 C26.613,1.495 25.875,1.423 25.147,1.433 C23.687,1.455 22.229,1.796 20.920,2.482 C18.520,3.740 16.512,6.194 15.638,9.753 C13.774,16.493 17.890,24.121 22.631,28.202 C23.986,29.367 25.360,30.150 26.653,30.474 C27.874,30.887 28.906,30.817 29.762,30.499 C31.806,29.748 32.862,27.575 33.073,27.440 C33.574,26.690 34.255,26.168 34.965,26.011 C35.645,25.863 36.354,26.048 36.967,26.695 C37.036,26.766 37.100,26.848 37.166,26.935 C38.062,28.233 38.092,31.376 36.569,33.891 C36.346,34.201 35.480,35.689 33.535,37.413 C32.785,38.072 31.744,38.739 30.527,39.241 C28.374,40.122 25.633,40.479 23.026,39.433 C21.528,39.032 20.024,38.275 18.570,37.206 C14.553,34.244 11.049,29.193 9.221,23.513 C7.490,18.121 7.411,12.554 9.905,8.086 C11.921,4.127 15.142,1.705 18.419,0.701 C19.551,0.352 20.720,0.160 21.868,0.109 C23.470,0.038 25.063,0.231 26.515,0.644 C26.121,0.526 25.722,0.410 25.314,0.301 C25.698,0.394 26.072,0.493 26.436,0.601 C26.822,0.713 27.206,0.831 27.578,0.957 C27.465,0.919 27.347,0.886 27.231,0.851 C27.407,0.906 27.583,0.961 27.754,1.022 L27.759,1.022 L27.865,1.059 L27.884,1.065 L27.996,1.103 L28.010,1.110 L28.125,1.153 L28.134,1.156 C28.299,1.217 28.462,1.279 28.623,1.343 L28.634,1.348 L28.744,1.392 L28.863,1.441 L28.882,1.449 L28.982,1.492 C29.096,1.540 29.212,1.592 29.325,1.642 L29.335,1.646 L29.547,1.740 L29.559,1.748 L29.604,1.769 L29.672,1.797 L29.681,1.803 C29.790,1.854 29.897,1.906 30.004,1.958 L30.066,1.988 L30.112,2.011 L30.137,2.025 C30.308,2.109 30.477,2.196 30.639,2.283 L30.722,2.326 L30.742,2.336 L30.828,2.383 L30.844,2.392 L30.944,2.447 L31.036,2.496 L31.043,2.501 L31.137,2.555 L31.141,2.556 L31.238,2.612 C31.366,2.685 31.490,2.758 31.613,2.831 L31.629,2.839 L31.704,2.885 C31.824,2.960 31.941,3.030 32.056,3.104 L32.086,3.123 L32.141,3.156 L32.173,3.179 L32.223,3.210 L32.260,3.233 L32.306,3.263 L32.344,3.288 L32.387,3.316 L32.429,3.343 L32.466,3.369 L32.511,3.397 L32.544,3.420 L32.592,3.451 L32.622,3.472 L32.635,3.479 L32.697,3.521 L32.748,3.557 L32.773,3.573 L32.824,3.610 L32.844,3.624 L32.900,3.661 L32.916,3.675 L32.973,3.713 L32.986,3.723 L33.044,3.766 L33.055,3.772 L33.115,3.814 L33.123,3.819 L33.183,3.863 L33.189,3.868 L33.250,3.913 L33.253,3.915 L33.317,3.959 C33.913,4.395 34.321,4.740 34.495,4.889 C34.243,4.760 33.989,4.628 33.725,4.499 C33.350,4.271 31.895,3.233 29.936,2.395 ZM12.429,40.070 C17.680,43.688 24.606,44.900 30.215,42.609 C30.905,42.324 31.580,41.995 32.230,41.605 C37.527,38.546 40.106,29.834 39.260,25.054 C39.005,23.357 38.494,22.240 37.975,21.480 C37.556,20.866 37.121,20.479 36.771,20.218 C36.410,19.947 36.144,19.813 36.070,19.722 C35.765,19.511 35.438,19.195 35.110,18.795 C34.225,17.705 33.349,16.055 32.949,14.338 C32.592,12.855 33.036,11.848 34.050,11.865 C34.505,11.875 35.082,12.088 35.740,12.583 C35.986,12.794 36.967,13.477 38.360,15.270 C38.469,15.405 38.585,15.553 38.698,15.718 C39.917,17.441 41.425,20.625 41.783,24.230 C41.848,24.704 41.890,25.196 41.915,25.696 L41.898,25.680 C42.106,32.647 37.822,42.542 31.767,45.482 C31.440,45.652 31.112,45.802 30.784,45.947 C24.939,48.492 18.239,47.445 12.996,44.204 C10.786,42.837 8.863,41.115 7.358,39.208 C0.720,31.350 0.579,23.289 0.528,21.761 C0.656,22.085 0.821,22.734 1.078,23.609 C1.961,26.609 4.010,32.410 9.373,37.496 C10.288,38.440 11.318,39.301 12.429,40.070 ZM56.235,44.026 L59.603,44.026 L59.603,41.959 L60.155,41.407 L60.155,46.637 L59.603,47.188 L59.603,44.553 L56.235,44.553 L56.235,46.637 L55.683,47.188 L55.683,41.959 L56.235,41.407 L56.235,44.026 ZM67.085,42.000 L65.068,42.000 L65.068,43.993 L67.332,43.993 L66.805,44.520 L65.068,44.520 L65.068,46.596 L67.851,46.596 L67.324,47.123 L64.515,47.123 L64.515,41.473 L67.612,41.473 L67.085,42.000 ZM73.965,41.341 L76.706,46.853 L76.305,47.254 L75.135,44.907 L72.739,44.907 L71.577,47.254 L71.577,47.254 L71.198,46.875 L73.949,41.341 L73.965,41.341 ZM73.002,44.380 L74.872,44.380 L73.941,42.494 L73.002,44.380 ZM81.003,41.407 L81.003,46.596 L83.062,46.596 L82.535,47.123 L80.451,47.123 L80.451,41.937 L80.978,41.410 L81.003,41.407 ZM105.837,44.833 L105.392,45.278 L103.737,45.278 L104.181,44.833 L105.837,44.833 ZM114.810,43.161 C114.810,43.993 114.282,44.710 113.360,44.784 L114.702,46.362 L114.702,47.254 L112.363,44.438 L112.330,44.438 L112.330,46.637 L111.779,47.188 L111.779,41.473 L112.948,41.473 C114.200,41.473 114.810,42.288 114.810,43.161 ZM112.330,44.372 L113.022,44.372 C113.706,44.372 114.216,43.845 114.216,43.169 C114.216,42.560 113.780,42.000 112.989,42.000 L112.330,42.000 L112.330,44.372 ZM121.550,42.000 L119.532,42.000 L119.532,43.993 L121.797,43.993 L121.270,44.520 L119.532,44.520 L119.532,46.596 L122.316,46.596 L121.789,47.123 L118.981,47.123 L118.981,41.473 L122.077,41.473 L121.550,42.000 ZM143.164,41.341 C144.523,41.341 146.187,42.387 146.187,44.306 C146.187,45.830 144.935,47.254 143.164,47.254 C141.393,47.254 140.141,45.830 140.141,44.306 C140.141,42.387 141.805,41.341 143.164,41.341 ZM140.735,44.281 C140.735,45.640 141.780,46.727 143.164,46.727 C144.548,46.727 145.594,45.640 145.594,44.281 C145.594,43.137 144.729,41.868 143.164,41.868 C141.599,41.868 140.735,43.137 140.735,44.281 ZM154.088,45.830 L154.088,41.959 L154.640,41.407 L154.640,47.254 L150.728,42.758 L150.703,42.766 L150.703,46.637 L150.152,47.188 L150.152,41.341 L154.055,45.830 L154.088,45.830 ZM160.368,46.727 C161.052,46.727 161.554,46.299 161.554,45.698 C161.554,44.833 160.739,44.693 159.940,44.388 C159.404,44.183 158.770,43.804 158.770,42.898 C158.770,42.000 159.495,41.341 160.483,41.341 C161.167,41.341 161.669,41.679 161.990,42.049 L161.587,42.478 C161.356,42.140 160.977,41.868 160.475,41.868 C159.800,41.868 159.363,42.313 159.363,42.914 C159.363,43.589 159.989,43.828 160.508,44.001 C161.200,44.232 162.147,44.569 162.147,45.690 C162.147,46.505 161.513,47.254 160.368,47.254 C159.948,47.254 159.174,47.147 158.647,46.274 L159.075,45.912 C159.314,46.381 159.775,46.727 160.368,46.727 ZM179.190,46.637 L178.638,47.188 L178.638,41.959 L179.190,41.407 L179.190,46.637 ZM184.152,46.596 L186.210,46.596 L185.683,47.123 L183.600,47.123 L183.600,41.959 L184.152,41.407 L184.152,46.596 ZM190.588,46.637 L190.036,47.188 L190.036,41.959 L190.588,41.407 L190.588,46.637 ZM197.963,41.473 L197.963,41.473 L197.435,42.000 L196.497,42.000 L196.497,46.637 L195.945,47.188 L195.945,42.000 L194.397,42.000 L194.924,41.473 L197.963,41.473 ZM201.541,41.300 L203.270,44.396 L203.303,44.396 L204.843,41.308 L205.265,41.730 L202.496,47.180 L202.056,46.740 L202.990,44.998 L201.127,41.714 L201.541,41.300 Z"/>
</svg>