<svg
 xmlns="http://www.w3.org/2000/svg"
 xmlns:xlink="http://www.w3.org/1999/xlink"
 width="160px" height="38px">
<path fill-rule="evenodd"  fill="rgb(49, 72, 181)"
 d="M152.860,18.977 L149.638,18.977 L149.638,26.602 L145.953,29.106 L145.953,18.977 L142.731,18.977 C138.052,18.977 135.826,16.751 135.826,12.072 L135.826,7.671 L139.511,5.166 L139.511,12.072 C139.511,14.142 140.660,15.295 142.731,15.295 L152.860,15.295 C154.931,15.295 156.081,14.142 156.081,12.072 L156.081,7.670 L159.764,5.166 L159.764,12.072 C159.764,16.751 157.540,18.977 152.860,18.977 ZM135.724,35.769 C135.724,36.463 135.210,36.970 134.349,36.970 L133.142,36.970 L133.142,32.564 L134.266,32.564 C135.094,32.564 135.602,33.085 135.602,33.714 C135.602,34.125 135.422,34.511 134.991,34.710 L134.991,34.729 C135.409,34.870 135.724,35.230 135.724,35.769 ZM135.152,33.766 C135.152,33.342 134.824,32.976 134.259,32.976 L133.572,32.976 L133.572,34.536 L134.311,34.536 C134.946,34.536 135.152,34.087 135.152,33.766 ZM134.401,34.948 L133.572,34.948 L133.572,36.560 L134.413,36.560 C134.895,36.560 135.261,36.251 135.261,35.782 C135.261,35.307 134.914,34.948 134.401,34.948 ZM129.272,32.943 L129.702,32.513 L129.702,36.592 L129.272,37.022 L129.272,32.943 ZM128.438,25.421 L125.933,29.106 L104.498,29.106 L104.498,5.166 L128.438,5.166 L125.933,8.852 L108.183,8.852 L108.183,15.295 L123.374,15.295 L120.872,18.977 L108.183,18.977 L108.183,25.421 L128.438,25.421 ZM106.164,34.074 C106.164,34.883 105.509,35.545 104.475,35.545 C104.365,35.545 104.256,35.538 104.147,35.526 L104.147,36.592 L103.717,37.022 L103.717,32.564 L104.468,32.564 C105.702,32.564 106.164,33.393 106.164,34.074 ZM104.552,32.957 L104.147,32.957 L104.147,35.114 C104.276,35.134 104.398,35.134 104.526,35.134 C105.342,35.134 105.702,34.594 105.702,34.067 C105.702,33.502 105.297,32.957 104.552,32.957 ZM100.592,35.853 C100.592,36.489 100.098,37.073 99.205,37.073 C98.877,37.073 98.274,36.990 97.863,36.309 L98.197,36.027 C98.383,36.392 98.742,36.662 99.205,36.662 C99.738,36.662 100.130,36.328 100.130,35.859 C100.130,35.185 99.494,35.076 98.871,34.838 C98.454,34.678 97.959,34.382 97.959,33.676 C97.959,32.976 98.524,32.462 99.295,32.462 C99.828,32.462 100.220,32.725 100.470,33.014 L100.155,33.348 C99.976,33.085 99.680,32.873 99.289,32.873 C98.762,32.873 98.422,33.220 98.422,33.689 C98.422,34.215 98.910,34.401 99.314,34.536 C99.854,34.716 100.592,34.979 100.592,35.853 ZM90.203,21.511 L76.854,21.511 L76.854,26.602 L73.169,29.106 L73.169,5.166 L90.203,5.166 C94.881,5.166 97.109,7.393 97.109,12.072 L97.109,14.605 C97.109,19.283 94.881,21.511 90.203,21.511 ZM93.423,12.072 C93.423,10.000 92.273,8.852 90.203,8.852 L76.854,8.852 L76.854,17.826 L90.203,17.826 C92.274,17.826 93.423,16.676 93.423,14.605 L93.423,12.072 ZM75.455,32.943 L75.885,32.513 L75.885,36.592 L75.455,37.022 L75.455,34.967 L72.828,34.967 L72.828,36.592 L72.398,37.022 L72.398,32.943 L72.828,32.513 L72.828,34.556 L75.455,34.556 L75.455,32.943 ZM68.264,32.976 L68.264,36.592 L67.834,37.022 L67.834,32.976 L66.627,32.976 L67.038,32.564 L69.408,32.564 L68.997,32.976 L68.264,32.976 ZM48.747,15.295 L58.874,15.295 C63.555,15.295 65.780,17.520 65.780,22.200 C65.780,26.881 63.555,29.106 58.874,29.106 L43.106,29.106 L43.106,29.089 L45.594,25.421 L58.874,25.421 C60.944,25.421 62.097,24.271 62.097,22.200 C62.097,20.131 60.944,18.977 58.874,18.977 L48.747,18.977 C44.067,18.977 41.842,16.752 41.842,12.072 C41.842,7.392 44.068,5.166 48.747,5.166 L64.515,5.166 L64.515,5.220 L62.063,8.852 L48.747,8.852 C46.676,8.852 45.526,10.000 45.526,12.072 C45.526,14.144 46.674,15.295 48.747,15.295 ZM30.786,31.894 C30.326,32.639 29.962,33.105 29.817,33.297 C30.192,32.652 32.063,29.953 32.859,25.697 C33.662,21.660 32.854,15.674 30.487,11.773 C30.268,11.410 30.046,11.070 29.817,10.760 C28.097,8.416 25.983,7.410 24.419,7.462 C23.712,7.532 23.117,7.829 22.736,8.337 C21.043,10.124 22.853,13.441 22.869,13.802 C23.389,15.452 23.012,17.714 21.516,18.811 C21.269,18.997 20.990,19.113 20.693,19.166 C19.835,19.468 18.776,19.174 17.824,18.345 C16.996,17.618 16.269,16.503 15.841,15.057 C15.760,14.624 15.242,12.930 15.111,10.276 C14.991,7.988 15.717,4.908 18.246,3.973 C18.846,3.645 19.586,3.472 20.402,3.455 C23.097,3.400 26.804,5.115 29.359,8.298 C29.884,8.958 30.388,9.693 30.845,10.507 C33.603,15.294 34.130,21.869 33.177,25.915 C32.548,28.696 31.541,30.670 30.786,31.894 ZM23.003,2.089 C22.369,1.841 21.684,1.631 20.978,1.505 C20.412,1.388 19.836,1.332 19.268,1.339 C18.129,1.356 16.992,1.622 15.972,2.157 C14.100,3.138 12.534,5.052 11.853,7.828 C10.399,13.084 13.609,19.033 17.306,22.215 C18.363,23.124 19.435,23.734 20.442,23.987 C21.395,24.308 22.200,24.254 22.867,24.007 C24.461,23.421 25.285,21.726 25.449,21.621 C25.840,21.036 26.371,20.629 26.925,20.506 C27.455,20.391 28.008,20.535 28.487,21.040 C28.540,21.095 28.590,21.159 28.642,21.227 C29.340,22.239 29.364,24.691 28.176,26.651 C28.002,26.894 27.327,28.054 25.809,29.398 C25.225,29.912 24.413,30.433 23.464,30.824 C21.785,31.511 19.648,31.789 17.614,30.974 C16.446,30.661 15.273,30.071 14.139,29.237 C11.006,26.927 8.273,22.988 6.848,18.558 C5.498,14.353 5.437,10.012 7.382,6.527 C8.954,3.440 11.466,1.552 14.021,0.768 C14.904,0.496 15.816,0.347 16.711,0.307 C17.961,0.251 19.203,0.402 20.335,0.723 C20.028,0.632 19.716,0.541 19.399,0.456 C19.698,0.529 19.990,0.606 20.274,0.690 C20.575,0.777 20.874,0.869 21.164,0.968 C21.075,0.938 20.981,0.912 20.890,0.884 C21.029,0.927 21.167,0.970 21.302,1.018 L21.305,1.019 L21.388,1.047 L21.403,1.052 L21.490,1.082 L21.501,1.088 L21.591,1.121 L21.598,1.123 C21.727,1.171 21.854,1.219 21.979,1.268 L21.987,1.273 L22.073,1.307 L22.166,1.345 L22.181,1.352 L22.259,1.385 C22.348,1.423 22.438,1.463 22.526,1.502 L22.534,1.505 L22.700,1.579 L22.709,1.584 L22.744,1.601 L22.797,1.623 L22.804,1.627 C22.889,1.668 22.972,1.708 23.056,1.748 L23.104,1.771 L23.140,1.790 L23.160,1.801 C23.293,1.866 23.425,1.934 23.551,2.001 L23.616,2.035 L23.632,2.043 L23.699,2.080 L23.711,2.087 L23.789,2.130 L23.860,2.168 L23.867,2.172 L23.940,2.214 L23.942,2.214 L24.018,2.258 C24.118,2.315 24.215,2.372 24.311,2.429 L24.323,2.436 L24.382,2.472 C24.475,2.529 24.567,2.584 24.656,2.642 L24.680,2.657 L24.722,2.683 L24.748,2.700 L24.787,2.725 L24.815,2.742 L24.851,2.766 L24.881,2.786 L24.915,2.807 L24.947,2.829 L24.976,2.849 L25.011,2.870 L25.037,2.888 L25.074,2.913 L25.098,2.929 L25.108,2.934 L25.156,2.967 L25.196,2.995 L25.215,3.008 L25.255,3.037 L25.271,3.048 L25.314,3.076 L25.327,3.087 L25.372,3.117 L25.382,3.125 L25.427,3.158 L25.436,3.163 L25.482,3.196 L25.489,3.199 L25.536,3.234 L25.540,3.238 L25.588,3.273 L25.590,3.274 L25.639,3.309 C26.104,3.649 26.422,3.918 26.558,4.034 C26.362,3.934 26.164,3.831 25.958,3.730 C25.665,3.552 24.531,2.742 23.003,2.089 ZM9.350,31.470 C13.445,34.292 18.846,35.237 23.220,33.450 C23.758,33.228 24.285,32.972 24.792,32.668 C28.923,30.282 30.934,23.488 30.274,19.760 C30.076,18.437 29.677,17.566 29.272,16.973 C28.946,16.494 28.606,16.192 28.333,15.988 C28.052,15.778 27.844,15.673 27.786,15.602 C27.549,15.437 27.294,15.191 27.038,14.879 C26.348,14.029 25.665,12.742 25.353,11.403 C25.074,10.247 25.421,9.461 26.212,9.474 C26.567,9.482 27.016,9.649 27.529,10.034 C27.721,10.199 28.486,10.731 29.572,12.130 C29.658,12.235 29.748,12.351 29.836,12.479 C30.787,13.823 31.963,16.306 32.242,19.117 C32.292,19.487 32.325,19.871 32.345,20.261 L32.332,20.248 C32.494,25.681 29.153,33.398 24.431,35.691 C24.176,35.823 23.920,35.941 23.664,36.054 C19.106,38.039 13.881,37.222 9.792,34.695 C8.069,33.628 6.569,32.285 5.396,30.798 C0.219,24.670 0.108,18.383 0.069,17.192 C0.168,17.445 0.297,17.951 0.497,18.633 C1.187,20.973 2.784,25.497 6.967,29.463 C7.680,30.199 8.484,30.871 9.350,31.470 ZM43.512,34.556 L46.139,34.556 L46.139,32.943 L46.569,32.513 L46.569,36.592 L46.139,37.022 L46.139,34.967 L43.512,34.967 L43.512,36.592 L43.082,37.022 L43.082,32.943 L43.512,32.513 L43.512,34.556 ZM51.974,32.976 L50.401,32.976 L50.401,34.530 L52.167,34.530 L51.756,34.941 L50.401,34.941 L50.401,36.560 L52.572,36.560 L52.161,36.970 L49.970,36.970 L49.970,32.564 L52.385,32.564 L51.974,32.976 ZM57.340,32.462 L59.477,36.760 L59.164,37.073 L58.252,35.243 L56.383,35.243 L55.478,37.073 L55.477,37.073 L55.182,36.778 L57.327,32.462 L57.340,32.462 ZM56.589,34.832 L58.047,34.832 L57.321,33.361 L56.589,34.832 ZM62.828,32.513 L62.828,36.560 L64.434,36.560 L64.023,36.970 L62.397,36.970 L62.397,32.927 L62.809,32.515 L62.828,32.513 ZM82.195,35.185 L81.849,35.532 L80.557,35.532 L80.904,35.185 L82.195,35.185 ZM89.193,33.881 C89.193,34.530 88.781,35.089 88.062,35.146 L89.109,36.378 L89.109,37.073 L87.285,34.877 L87.259,34.877 L87.259,36.592 L86.829,37.022 L86.829,32.564 L87.741,32.564 C88.717,32.564 89.193,33.200 89.193,33.881 ZM87.259,34.825 L87.799,34.825 C88.332,34.825 88.730,34.414 88.730,33.887 C88.730,33.413 88.390,32.976 87.773,32.976 L87.259,32.976 L87.259,34.825 ZM94.449,32.976 L92.876,32.976 L92.876,34.530 L94.642,34.530 L94.231,34.941 L92.876,34.941 L92.876,36.560 L95.047,36.560 L94.636,36.970 L92.445,36.970 L92.445,32.564 L94.860,32.564 L94.449,32.976 ZM111.305,32.462 C112.365,32.462 113.662,33.277 113.662,34.774 C113.662,35.962 112.686,37.073 111.305,37.073 C109.924,37.073 108.948,35.962 108.948,34.774 C108.948,33.277 110.245,32.462 111.305,32.462 ZM109.411,34.755 C109.411,35.815 110.226,36.662 111.305,36.662 C112.384,36.662 113.200,35.815 113.200,34.755 C113.200,33.862 112.526,32.873 111.305,32.873 C110.085,32.873 109.411,33.862 109.411,34.755 ZM119.825,35.962 L119.825,32.943 L120.255,32.513 L120.255,37.073 L117.204,33.566 L117.185,33.573 L117.185,36.592 L116.755,37.022 L116.755,32.462 L119.799,35.962 L119.825,35.962 ZM124.722,36.662 C125.255,36.662 125.647,36.328 125.647,35.859 C125.647,35.185 125.011,35.076 124.388,34.838 C123.970,34.678 123.476,34.382 123.476,33.676 C123.476,32.976 124.041,32.462 124.812,32.462 C125.345,32.462 125.737,32.725 125.987,33.014 L125.672,33.348 C125.492,33.085 125.197,32.873 124.805,32.873 C124.279,32.873 123.938,33.220 123.938,33.689 C123.938,34.215 124.426,34.401 124.831,34.536 C125.371,34.716 126.109,34.979 126.109,35.853 C126.109,36.489 125.615,37.073 124.722,37.073 C124.394,37.073 123.791,36.990 123.380,36.309 L123.714,36.027 C123.900,36.392 124.259,36.662 124.722,36.662 ZM139.400,36.592 L138.970,37.022 L138.970,32.943 L139.400,32.513 L139.400,36.592 ZM143.270,36.560 L144.875,36.560 L144.464,36.970 L142.839,36.970 L142.839,32.943 L143.270,32.513 L143.270,36.560 ZM148.289,36.592 L147.859,37.022 L147.859,32.943 L148.289,32.513 L148.289,36.592 ZM154.040,32.564 L154.040,32.565 L153.629,32.976 L152.897,32.976 L152.897,36.592 L152.467,37.022 L152.467,32.976 L151.259,32.976 L151.671,32.564 L154.040,32.564 ZM156.831,32.430 L158.180,34.845 L158.205,34.845 L159.406,32.436 L159.735,32.765 L157.576,37.015 L157.232,36.672 L157.961,35.313 L156.508,32.753 L156.831,32.430 Z"/>
</svg>